<?xml version="1.0" encoding="UTF-8"?>
<svg width="31px" height="35px" viewBox="0 0 31 35" version="1.1" xmlns="http://www.w3.org/2000/svg" xmlns:xlink="http://www.w3.org/1999/xlink">
    <title>dotin_مهارت حل مسئله-</title>
    <g id="new" stroke="none" stroke-width="1" fill="none" fill-rule="evenodd">
        <g id="Education-desktop-help-desk" transform="translate(-1121.000000, -3645.000000)" fill-rule="nonzero">
            <g id="dotin_مهارت-حل-مسئله-" transform="translate(1121.000000, 3645.000000)">
                <path d="M24.8,12.76 C24.4049573,11.8412775 23.8721707,10.9881446 23.22,10.23 L22.62,9.6 C22.0270725,9.01961621 21.3534573,8.52787712 20.62,8.14 C19.9861472,7.79008101 19.3153616,7.511705 18.62,7.31 C15.2069294,6.36598696 11.5515492,7.38387285 9.11760775,9.9560588 C6.68366633,12.5282447 5.86906498,16.2342292 7,19.59 C7.31890277,20.5244979 7.78474901,21.4021792 8.38,22.19 C8.91751185,22.839256 9.50605207,23.4445161 10.14,24 L10.53,24.29 C10.7760158,24.466484 11.0332227,24.6268208 11.3,24.77 C11.416814,24.8355871 11.5162468,24.9281624 11.59,25.04 C11.643099,25.1273536 11.670802,25.2277772 11.67,25.33 L11.67,30.64 C11.67,33.031393 13.608607,34.97 16,34.97 C18.391393,34.97 20.33,33.031393 20.33,30.64 L20.33,25.36 C20.3265031,25.2511459 20.354265,25.1435685 20.41,25.05 C20.4908493,24.9499084 20.5890885,24.8652195 20.7,24.8 C24.9010195,22.40939 26.659907,17.2614266 24.8,12.8 L24.8,12.76 Z M16,33.8100094 C15.1668451,33.8120459 14.3674803,33.4807776 13.78,32.89 C13.3336869,32.4471774 13.0335821,31.878374 12.92,31.26 L19.08,31.26 C18.7971886,32.7383301 17.5051373,33.8080479 16,33.8100094 L16,33.8100094 Z M19.14,30.07 L12.86,30.07 L12.86,28.15 L19.14,28.15 L19.14,30.07 Z M23.23,20.7 C22.479342,21.9774604 21.4070702,23.0359409 20.12,23.77 C19.8362068,23.919982 19.592682,24.1360674 19.41,24.4 C19.2205709,24.6981949 19.1263972,25.0469865 19.14,25.4 L19.14,27 L12.86,27 L12.86,25.36 C12.8617356,25.0318223 12.7716789,24.7096962 12.6,24.43 C12.4192027,24.1566548 12.1757973,23.9303906 11.89,23.77 C11.66,23.64 11.43,23.5 11.21,23.35 L11,23.16 C10.4020279,22.642632 9.84378881,22.0810501 9.33,21.48 C8.81178239,20.7883438 8.40673442,20.0187526 8.13,19.2 C7.25705432,16.6525829 7.66463362,13.8406385 9.22493301,11.6459099 C10.7852324,9.45118129 13.3071922,8.14241438 16,8.12999283 C16.7844027,8.12898042 17.5651625,8.23667142 18.32,8.45 C19.0776071,8.67895925 19.798326,9.01574377 20.46,9.45 C20.9077192,9.75114049 21.3322412,10.0854098 21.73,10.45 L21.81,10.54 C23.435018,12.1138245 24.3547048,14.2777933 24.36,16.54 C24.3525364,18.0014796 23.9629808,19.435596 23.23,20.7 L23.23,20.7 Z" id="Shape" fill="#000000"></path>
                <path d="M14.74,22.54 C15.2104995,22.514053 15.6567284,22.3228121 16,22 C16.3417277,22.3311319 16.7862203,22.5357397 17.26,22.58 L16.43,27 L17.64,27 L18.53,22.26 C18.6400263,22.1853251 18.7437107,22.1017087 18.84,22.01 C19.0494636,21.8011262 19.2099859,21.548389 19.31,21.27 C19.5744267,21.3866978 19.8610055,21.4446959 20.15,21.44 C20.7238405,21.4436327 21.2750972,21.2166446 21.68,20.81 C22.0899455,20.4024072 22.3203114,19.8480891 22.32,19.27 C22.3182256,19.1286262 22.3014652,18.9878391 22.27,18.85 C22.6578668,18.6687018 22.9997228,18.4020541 23.27,18.07 C23.6691022,17.562255 23.8872996,16.9358175 23.89,16.29 C23.8843671,15.2053363 23.2697914,14.2158309 22.3,13.73 C22.3314652,13.5921609 22.3482256,13.4513738 22.35,13.31 C22.3503114,12.7319109 22.1199455,12.1775928 21.71,11.77 C21.3050972,11.3633554 20.7538405,11.1363673 20.18,11.14 C19.8910055,11.1353041 19.6044267,11.1933022 19.34,11.31 C19.1274017,10.6396199 18.578322,10.1301688 17.8939224,9.96828991 C17.2095229,9.80641098 16.4903953,10.0158968 16,10.52 C15.5157463,10.0291964 14.8128353,9.8224332 14.1399606,9.97286439 C13.4670859,10.1232956 12.9191442,10.6097056 12.69,11.26 C12.4255733,11.1433022 12.1389945,11.0853041 11.85,11.09 C11.2761595,11.0863673 10.7249028,11.3133554 10.32,11.72 C9.91005454,12.1275928 9.67968859,12.6819109 9.68,13.26 C9.67018797,13.3998281 9.67018797,13.5401719 9.68,13.68 C9.29274202,13.8667743 8.95133404,14.1364866 8.68,14.47 C7.85302689,15.5088507 7.85302689,16.9811493 8.68,18.02 C8.94878326,18.3535755 9.29102128,18.6205212 9.68,18.8 C9.67018797,18.9398281 9.67018797,19.0801719 9.68,19.22 C9.67968859,19.7980891 9.91005454,20.3524072 10.32,20.76 C10.7249028,21.1666446 11.2761595,21.3936327 11.85,21.39 C12.1389945,21.3946959 12.4255733,21.3366978 12.69,21.22 C12.7900141,21.498389 12.9505364,21.7511262 13.16,21.96 C13.2562893,22.0517087 13.3599737,22.1353251 13.47,22.21 L14.36,27 L15.57,27 L14.74,22.54 Z M16.6,18 C16.8563826,18.1207152 17.1366288,18.1822327 17.42,18.18 C18.5245695,18.18 19.42,17.2845695 19.42,16.18 C19.3811591,15.8810231 19.1264893,15.6572981 18.825,15.6572981 C18.5235107,15.6572981 18.2688409,15.8810231 18.23,16.18 C18.2290079,16.397296 18.1428391,16.6055372 17.99,16.76 C17.8384582,16.9183798 17.6291964,17.0085789 17.41,17.01 C17.1903159,17.0109358 16.9801632,16.9203527 16.83,16.76 C16.6723063,16.6088075 16.5852462,16.3984122 16.59,16.18 L16.59,11.93 C16.59,11.4771265 16.9571265,11.11 17.41,11.11 C17.6270828,11.1120457 17.8349436,11.1980571 17.99,11.35 C18.1402174,11.5061905 18.225932,11.7133339 18.23,11.93 L18.23,12.17 C18.1699074,12.2786069 18.1197052,12.3923987 18.08,12.51 C17.9893331,12.7462749 17.9419112,12.9969335 17.94,13.25 C17.9427325,13.6699671 18.0678361,14.0800289 18.3,14.43 C18.5398744,14.796136 18.8901387,15.0763475 19.3,15.23 C19.3789056,15.2487141 19.4610944,15.2487141 19.54,15.23 C19.7741503,15.2330409 19.9871592,15.0949795 20.08,14.88 C20.1439091,14.7368144 20.1481926,14.5740784 20.0919044,14.4277291 C20.0356162,14.2813798 19.9233868,14.1634564 19.78,14.1 C19.6039563,14.0207593 19.4546131,13.8922547 19.35,13.73 C19.2435149,13.5739514 19.1876515,13.388904 19.19,13.2 C19.1747608,13.0871789 19.1747608,12.9728211 19.19,12.86 C19.2742721,12.6335643 19.4376751,12.4452956 19.65,12.33 C19.7963613,12.2583438 19.9570408,12.220738 20.12,12.22 C20.3774695,12.2210253 20.6246225,12.3213193 20.81,12.5 C20.9947442,12.6862606 21.0988954,12.9376601 21.1,13.2 C21.1097686,13.2830471 21.1097686,13.3669529 21.1,13.45 C21.0794344,13.5189481 21.052658,13.5858889 21.02,13.65 C20.9775861,13.705486 20.950049,13.7708867 20.94,13.84 C20.9026731,13.9900895 20.9279391,14.148904 21.01,14.28 C21.0943486,14.4139285 21.2267244,14.510527 21.38,14.55 C21.7468824,14.6380171 22.0740604,14.8455817 22.31,15.14 C22.6285038,15.5356428 22.7483502,16.0553273 22.6352799,16.550497 C22.5222097,17.0456667 22.1886678,17.4618215 21.73,17.68 C21.6210498,17.5577553 21.496675,17.4501879 21.36,17.36 C21.0010002,17.1232871 20.5800116,16.9980343 20.15,17 C19.9190966,17.0023235 19.6898596,17.039406 19.47,17.11 C19.203922,17.2116578 19.0459887,17.4863785 19.0920294,17.7674693 C19.1380702,18.0485601 19.3753942,18.2585404 19.66,18.27 C19.7196213,18.2795335 19.7803787,18.2795335 19.84,18.27 C19.9404727,18.2388587 20.0448314,18.2220267 20.15,18.22 C20.3460334,18.2215308 20.5372933,18.2806475 20.7,18.39 C20.8953877,18.5234639 21.0371194,18.7218882 21.1,18.95 C21.1104577,19.0330052 21.1104577,19.1169948 21.1,19.2 C21.0962966,19.4588682 20.9923408,19.7062113 20.81,19.89 C20.5005838,20.1911561 20.0328187,20.2597079 19.65,20.06 C19.5181953,19.9914006 19.4049672,19.8918972 19.32,19.77 C19.2102381,19.5880835 19.0124532,19.4777804 18.8,19.48 C18.474152,19.48 18.21,19.744152 18.21,20.07 L18.21,20.51 C18.2090079,20.727296 18.1228391,20.9355372 17.97,21.09 C17.8174349,21.2456729 17.6079556,21.3323541 17.39,21.3300467 C16.9371265,21.3300467 16.57,20.9628735 16.57,20.51 L16.6,18 Z M14,21.1 C13.8471609,20.9455372 13.7609921,20.737296 13.76,20.52 L13.76,20.08 C13.76,19.754152 13.495848,19.49 13.17,19.49 C12.9620962,19.4851531 12.7675092,19.5919852 12.66,19.77 C12.4733242,20.0321956 12.1718574,20.1885117 11.85,20.19 C11.5911318,20.1862966 11.3437887,20.0823408 11.16,19.9 C10.9776592,19.7162113 10.8737034,19.4688682 10.87,19.21 C10.8595423,19.1269948 10.8595423,19.0430052 10.87,18.96 C10.9328806,18.7318882 11.0746123,18.5334639 11.27,18.4 C11.4327067,18.2906475 11.6239666,18.2315308 11.82,18.23 C11.9251686,18.2320267 12.0295273,18.2488587 12.13,18.28 C12.1896213,18.2895335 12.2503787,18.2895335 12.31,18.28 C12.5684791,18.2803781 12.7981485,18.1151773 12.88,17.87 C12.978078,17.555315 12.8039406,17.2204354 12.49,17.12 C11.857068,16.9088478 11.1618674,17.0049926 10.61,17.38 C10.473325,17.4701879 10.3489502,17.5777553 10.24,17.7 C10.0159098,17.5900439 9.81810046,17.4331605 9.66,17.24 C9.30157849,16.7914903 9.19867808,16.190311 9.38752838,15.6481279 C9.57637868,15.1059447 10.0304987,14.6987838 10.59,14.57 C10.7432756,14.530527 10.8756514,14.4339285 10.96,14.3 C11.0437099,14.1658172 11.068995,14.0032702 11.03,13.85 C11.0113083,13.7772165 10.9844722,13.7067718 10.95,13.64 C10.919268,13.585337 10.8925315,13.528522 10.87,13.47 C10.8602314,13.3869529 10.8602314,13.3030471 10.87,13.22 C10.8711046,12.9576601 10.9752558,12.7062606 11.16,12.52 C11.3453775,12.3413193 11.5925305,12.2410253 11.85,12.24 C12.0129592,12.240738 12.1736387,12.2783438 12.32,12.35 C12.5323249,12.4652956 12.6957279,12.6535643 12.78,12.88 C12.8119943,12.9905445 12.8288149,13.1049247 12.83,13.22 C12.8323485,13.408904 12.7764851,13.5939514 12.67,13.75 C12.5653869,13.9122547 12.4160437,14.0407593 12.24,14.12 C12.0966132,14.1834564 11.9843838,14.3013798 11.9280956,14.4477291 C11.8718074,14.5940784 11.8760909,14.7568144 11.94,14.9 C12.0328408,15.1149795 12.2458497,15.2530409 12.48,15.25 C12.5589056,15.2687141 12.6410944,15.2687141 12.72,15.25 C13.1094291,15.0841502 13.4402971,14.8055246 13.67,14.45 C13.8958981,14.0912809 14.0107092,13.6737862 14,13.25 C14.0015036,12.9975241 13.9574656,12.7468462 13.87,12.51 C13.849111,12.4167918 13.8043073,12.3306307 13.74,12.26 L13.74,11.93 C13.744068,11.7133339 13.8297826,11.5061905 13.98,11.35 C14.1350564,11.1980571 14.3429172,11.1120457 14.56,11.11 C15.0128735,11.11 15.38,11.4771265 15.38,11.93 L15.38,16.12 C15.3847538,16.3384122 15.2976937,16.5488075 15.14,16.7 C14.9898368,16.8603527 14.7796841,16.9509358 14.56,16.95 C14.3477819,16.9432836 14.1466859,16.8535085 14,16.7 C13.8471609,16.5455372 13.7609921,16.337296 13.76,16.12 C13.7211591,15.8210231 13.4664893,15.5972981 13.165,15.5972981 C12.8635107,15.5972981 12.6088409,15.8210231 12.57,16.12 C12.57,17.2245695 13.4654305,18.12 14.57,18.12 C14.8521621,18.1426604 15.1358107,18.101651 15.4,18 L15.4,20.56 C15.4,21.0128735 15.0328735,21.38 14.58,21.38 C14.3559764,21.3720484 14.145566,21.270471 14,21.1 Z" id="Shape" fill="#238863"></path>
                <path d="M16,4.09 C15.6796748,4.09 15.42,3.83032515 15.42,3.51 L15.42,0.58 C15.42,0.259674845 15.6796748,0 16,0 C16.3203252,0 16.58,0.259674845 16.58,0.58 L16.58,3.51 C16.58,3.83032515 16.3203252,4.09 16,4.09 Z" id="Path" fill="#000000"></path>
                <path d="M9,6.37 C8.79415309,6.36718487 8.60465846,6.25727798 8.5,6.08 L7,3.54 C6.84100712,3.26370229 6.93479579,2.91087824 7.21,2.75 C7.29830454,2.69913911 7.3981082,2.67160706 7.5,2.67 C7.71569639,2.6764852 7.9092369,2.80422194 8,3 L9.49,5.5 C9.60022286,5.67762332 9.60022286,5.90237668 9.49,6.08 C9.39010336,6.25716473 9.20337475,6.36767759 9,6.37 L9,6.37 Z" id="Path" fill="#000000"></path>
                <path d="M4,11.85 C3.86,11.85 3.86,11.85 2.62,11.13 L1.24,10.31 C1.1026546,10.2378236 0.99995358,10.113627 0.954853074,9.96517122 C0.909752568,9.81671539 0.926013082,9.65637861 1,9.52 C1.10166007,9.33973024 1.29304509,9.22872693 1.5,9.23 C1.60251158,9.22690132 1.70357601,9.25478116 1.79,9.31 L4.32,10.77 C4.54495585,10.9022329 4.65391148,11.1684112 4.5862409,11.4204258 C4.51857031,11.6724404 4.29093594,11.8482381 4.03,11.85 L4,11.85 Z" id="Path" fill="#000000"></path>
                <path d="M23,6.37 C22.7930451,6.37127307 22.6016601,6.26026976 22.5,6.08 C22.3897771,5.90237668 22.3897771,5.67762332 22.5,5.5 L24,3 C24.1016601,2.81973024 24.2930451,2.70872693 24.5,2.70998917 C24.6018918,2.71160706 24.7016955,2.73913911 24.79,2.79 C25.0652042,2.95087824 25.1589929,3.30370229 25,3.58 L23.51,6.08 C23.4050284,6.26185855 23.2099615,6.37277895 23,6.37 Z" id="Path" fill="#000000"></path>
                <path d="M27.84,11.85 C27.6336063,11.8491825 27.4431961,11.7387446 27.34,11.56 C27.2602174,11.4278695 27.2385081,11.268668 27.28,11.12 C27.3212434,10.9727527 27.4180447,10.8472696 27.55,10.77 L30.08,9.31 C30.166424,9.25478116 30.2674884,9.22690132 30.37,9.23 C30.5769549,9.22872693 30.7683399,9.33973024 30.87,9.52 C31.0289929,9.79629771 30.9352042,10.1491218 30.66,10.31 L28.13,11.78 C28.040926,11.827791 27.9410671,11.8518948 27.84,11.85 Z" id="Path" fill="#000000"></path>
            </g>
        </g>
    </g>
</svg>